<?xml version="1.0" encoding="utf-8"?>
<!-- Generator: Adobe Illustrator 21.1.0, SVG Export Plug-In . SVG Version: 6.00 Build 0)  -->
<svg version="1.1" id="Layer_1" xmlns="http://www.w3.org/2000/svg" xmlns:xlink="http://www.w3.org/1999/xlink" x="0px" y="0px"
	 viewBox="0 0 48 65.3" style="enable-background:new 0 0 48 65.3;" xml:space="preserve">
<style type="text/css">
	.st0{fill:#FF6E1E;}
	.st1{fill:#FFFFFF;}
	.st2{font-family:'DINAlternate-Bold';}
	.st3{font-size:50px;}
</style>
<title>book-bookmark</title>
<path class="st0" d="M5.3,1.3C2.4,1.3,0,3.7,0,6.6v48c0,2.9,2.4,5.3,5.3,5.3h5.3v5.4l6.7-5.3l6.7,5.3V60h18.7c2.9,0,5.3-2.4,5.3-5.3
	V52c0,2.9-2.4,5.3-5.3,5.3H24V52H10.7v5.3h-4c-2.2,0-4-1.9-4-4c0-2.4,1.8-4,4-4h36c2.9,0,5.3-2.4,5.3-5.3V6.6c0-2.9-2.4-5.3-5.3-5.3
	H5.3L5.3,1.3z"/>
<text transform="matrix(1 0 0 1 13.5914 42.9442)" class="st1 st2 st3">?</text>
</svg>
